<mxfile host="Electron" agent="Mozilla/5.0 (Windows NT 10.0; Win64; x64) AppleWebKit/537.36 (KHTML, like Gecko) draw.io/26.2.2 Chrome/134.0.6998.178 Electron/35.1.2 Safari/537.36" version="26.2.2">
  <diagram name="Page-1" id="LK6ULAaJql4d3qNlsfY-">
    <mxGraphModel dx="2683" dy="1994" grid="1" gridSize="10" guides="1" tooltips="1" connect="1" arrows="1" fold="1" page="1" pageScale="1" pageWidth="850" pageHeight="1100" math="0" shadow="0">
      <root>
        <mxCell id="0" />
        <mxCell id="1" parent="0" />
        <mxCell id="ykuaLZmYjPcyV5SVd6rN-1" value="Student Details" style="shape=table;startSize=30;container=1;collapsible=1;childLayout=tableLayout;fixedRows=1;rowLines=0;fontStyle=1;align=center;resizeLast=1;html=1;" parent="1" vertex="1">
          <mxGeometry y="-10" width="180" height="330" as="geometry" />
        </mxCell>
        <mxCell id="ykuaLZmYjPcyV5SVd6rN-2" value="" style="shape=tableRow;horizontal=0;startSize=0;swimlaneHead=0;swimlaneBody=0;fillColor=none;collapsible=0;dropTarget=0;points=[[0,0.5],[1,0.5]];portConstraint=eastwest;top=0;left=0;right=0;bottom=1;" parent="ykuaLZmYjPcyV5SVd6rN-1" vertex="1">
          <mxGeometry y="30" width="180" height="30" as="geometry" />
        </mxCell>
        <mxCell id="ykuaLZmYjPcyV5SVd6rN-3" value="PK" style="shape=partialRectangle;connectable=0;fillColor=none;top=0;left=0;bottom=0;right=0;fontStyle=1;overflow=hidden;whiteSpace=wrap;html=1;" parent="ykuaLZmYjPcyV5SVd6rN-2" vertex="1">
          <mxGeometry width="30" height="30" as="geometry">
            <mxRectangle width="30" height="30" as="alternateBounds" />
          </mxGeometry>
        </mxCell>
        <mxCell id="ykuaLZmYjPcyV5SVd6rN-4" value="Student ID" style="shape=partialRectangle;connectable=0;fillColor=none;top=0;left=0;bottom=0;right=0;align=left;spacingLeft=6;fontStyle=5;overflow=hidden;whiteSpace=wrap;html=1;" parent="ykuaLZmYjPcyV5SVd6rN-2" vertex="1">
          <mxGeometry x="30" width="150" height="30" as="geometry">
            <mxRectangle width="150" height="30" as="alternateBounds" />
          </mxGeometry>
        </mxCell>
        <mxCell id="ykuaLZmYjPcyV5SVd6rN-5" value="" style="shape=tableRow;horizontal=0;startSize=0;swimlaneHead=0;swimlaneBody=0;fillColor=none;collapsible=0;dropTarget=0;points=[[0,0.5],[1,0.5]];portConstraint=eastwest;top=0;left=0;right=0;bottom=0;" parent="ykuaLZmYjPcyV5SVd6rN-1" vertex="1">
          <mxGeometry y="60" width="180" height="30" as="geometry" />
        </mxCell>
        <mxCell id="ykuaLZmYjPcyV5SVd6rN-6" value="" style="shape=partialRectangle;connectable=0;fillColor=none;top=0;left=0;bottom=0;right=0;editable=1;overflow=hidden;whiteSpace=wrap;html=1;" parent="ykuaLZmYjPcyV5SVd6rN-5" vertex="1">
          <mxGeometry width="30" height="30" as="geometry">
            <mxRectangle width="30" height="30" as="alternateBounds" />
          </mxGeometry>
        </mxCell>
        <mxCell id="ykuaLZmYjPcyV5SVd6rN-7" value="Fname" style="shape=partialRectangle;connectable=0;fillColor=none;top=0;left=0;bottom=0;right=0;align=left;spacingLeft=6;overflow=hidden;whiteSpace=wrap;html=1;" parent="ykuaLZmYjPcyV5SVd6rN-5" vertex="1">
          <mxGeometry x="30" width="150" height="30" as="geometry">
            <mxRectangle width="150" height="30" as="alternateBounds" />
          </mxGeometry>
        </mxCell>
        <mxCell id="ykuaLZmYjPcyV5SVd6rN-8" value="" style="shape=tableRow;horizontal=0;startSize=0;swimlaneHead=0;swimlaneBody=0;fillColor=none;collapsible=0;dropTarget=0;points=[[0,0.5],[1,0.5]];portConstraint=eastwest;top=0;left=0;right=0;bottom=0;" parent="ykuaLZmYjPcyV5SVd6rN-1" vertex="1">
          <mxGeometry y="90" width="180" height="30" as="geometry" />
        </mxCell>
        <mxCell id="ykuaLZmYjPcyV5SVd6rN-9" value="" style="shape=partialRectangle;connectable=0;fillColor=none;top=0;left=0;bottom=0;right=0;editable=1;overflow=hidden;whiteSpace=wrap;html=1;" parent="ykuaLZmYjPcyV5SVd6rN-8" vertex="1">
          <mxGeometry width="30" height="30" as="geometry">
            <mxRectangle width="30" height="30" as="alternateBounds" />
          </mxGeometry>
        </mxCell>
        <mxCell id="ykuaLZmYjPcyV5SVd6rN-10" value="Lname" style="shape=partialRectangle;connectable=0;fillColor=none;top=0;left=0;bottom=0;right=0;align=left;spacingLeft=6;overflow=hidden;whiteSpace=wrap;html=1;" parent="ykuaLZmYjPcyV5SVd6rN-8" vertex="1">
          <mxGeometry x="30" width="150" height="30" as="geometry">
            <mxRectangle width="150" height="30" as="alternateBounds" />
          </mxGeometry>
        </mxCell>
        <mxCell id="ykuaLZmYjPcyV5SVd6rN-11" value="" style="shape=tableRow;horizontal=0;startSize=0;swimlaneHead=0;swimlaneBody=0;fillColor=none;collapsible=0;dropTarget=0;points=[[0,0.5],[1,0.5]];portConstraint=eastwest;top=0;left=0;right=0;bottom=0;" parent="ykuaLZmYjPcyV5SVd6rN-1" vertex="1">
          <mxGeometry y="120" width="180" height="30" as="geometry" />
        </mxCell>
        <mxCell id="ykuaLZmYjPcyV5SVd6rN-12" value="" style="shape=partialRectangle;connectable=0;fillColor=none;top=0;left=0;bottom=0;right=0;editable=1;overflow=hidden;whiteSpace=wrap;html=1;" parent="ykuaLZmYjPcyV5SVd6rN-11" vertex="1">
          <mxGeometry width="30" height="30" as="geometry">
            <mxRectangle width="30" height="30" as="alternateBounds" />
          </mxGeometry>
        </mxCell>
        <mxCell id="ykuaLZmYjPcyV5SVd6rN-13" value="Rollno." style="shape=partialRectangle;connectable=0;fillColor=none;top=0;left=0;bottom=0;right=0;align=left;spacingLeft=6;overflow=hidden;whiteSpace=wrap;html=1;" parent="ykuaLZmYjPcyV5SVd6rN-11" vertex="1">
          <mxGeometry x="30" width="150" height="30" as="geometry">
            <mxRectangle width="150" height="30" as="alternateBounds" />
          </mxGeometry>
        </mxCell>
        <mxCell id="ykuaLZmYjPcyV5SVd6rN-15" value="" style="shape=tableRow;horizontal=0;startSize=0;swimlaneHead=0;swimlaneBody=0;fillColor=none;collapsible=0;dropTarget=0;points=[[0,0.5],[1,0.5]];portConstraint=eastwest;top=0;left=0;right=0;bottom=0;" parent="ykuaLZmYjPcyV5SVd6rN-1" vertex="1">
          <mxGeometry y="150" width="180" height="30" as="geometry" />
        </mxCell>
        <mxCell id="ykuaLZmYjPcyV5SVd6rN-16" value="" style="shape=partialRectangle;connectable=0;fillColor=none;top=0;left=0;bottom=0;right=0;editable=1;overflow=hidden;whiteSpace=wrap;html=1;" parent="ykuaLZmYjPcyV5SVd6rN-15" vertex="1">
          <mxGeometry width="30" height="30" as="geometry">
            <mxRectangle width="30" height="30" as="alternateBounds" />
          </mxGeometry>
        </mxCell>
        <mxCell id="ykuaLZmYjPcyV5SVd6rN-17" value="Mo. No." style="shape=partialRectangle;connectable=0;fillColor=none;top=0;left=0;bottom=0;right=0;align=left;spacingLeft=6;overflow=hidden;whiteSpace=wrap;html=1;" parent="ykuaLZmYjPcyV5SVd6rN-15" vertex="1">
          <mxGeometry x="30" width="150" height="30" as="geometry">
            <mxRectangle width="150" height="30" as="alternateBounds" />
          </mxGeometry>
        </mxCell>
        <mxCell id="ykuaLZmYjPcyV5SVd6rN-18" value="" style="shape=tableRow;horizontal=0;startSize=0;swimlaneHead=0;swimlaneBody=0;fillColor=none;collapsible=0;dropTarget=0;points=[[0,0.5],[1,0.5]];portConstraint=eastwest;top=0;left=0;right=0;bottom=0;" parent="ykuaLZmYjPcyV5SVd6rN-1" vertex="1">
          <mxGeometry y="180" width="180" height="30" as="geometry" />
        </mxCell>
        <mxCell id="ykuaLZmYjPcyV5SVd6rN-19" value="" style="shape=partialRectangle;connectable=0;fillColor=none;top=0;left=0;bottom=0;right=0;editable=1;overflow=hidden;whiteSpace=wrap;html=1;" parent="ykuaLZmYjPcyV5SVd6rN-18" vertex="1">
          <mxGeometry width="30" height="30" as="geometry">
            <mxRectangle width="30" height="30" as="alternateBounds" />
          </mxGeometry>
        </mxCell>
        <mxCell id="ykuaLZmYjPcyV5SVd6rN-20" value="Address" style="shape=partialRectangle;connectable=0;fillColor=none;top=0;left=0;bottom=0;right=0;align=left;spacingLeft=6;overflow=hidden;whiteSpace=wrap;html=1;" parent="ykuaLZmYjPcyV5SVd6rN-18" vertex="1">
          <mxGeometry x="30" width="150" height="30" as="geometry">
            <mxRectangle width="150" height="30" as="alternateBounds" />
          </mxGeometry>
        </mxCell>
        <mxCell id="ykuaLZmYjPcyV5SVd6rN-24" value="" style="shape=tableRow;horizontal=0;startSize=0;swimlaneHead=0;swimlaneBody=0;fillColor=none;collapsible=0;dropTarget=0;points=[[0,0.5],[1,0.5]];portConstraint=eastwest;top=0;left=0;right=0;bottom=0;" parent="ykuaLZmYjPcyV5SVd6rN-1" vertex="1">
          <mxGeometry y="210" width="180" height="30" as="geometry" />
        </mxCell>
        <mxCell id="ykuaLZmYjPcyV5SVd6rN-25" value="" style="shape=partialRectangle;connectable=0;fillColor=none;top=0;left=0;bottom=0;right=0;editable=1;overflow=hidden;whiteSpace=wrap;html=1;" parent="ykuaLZmYjPcyV5SVd6rN-24" vertex="1">
          <mxGeometry width="30" height="30" as="geometry">
            <mxRectangle width="30" height="30" as="alternateBounds" />
          </mxGeometry>
        </mxCell>
        <mxCell id="ykuaLZmYjPcyV5SVd6rN-26" value="Division" style="shape=partialRectangle;connectable=0;fillColor=none;top=0;left=0;bottom=0;right=0;align=left;spacingLeft=6;overflow=hidden;whiteSpace=wrap;html=1;" parent="ykuaLZmYjPcyV5SVd6rN-24" vertex="1">
          <mxGeometry x="30" width="150" height="30" as="geometry">
            <mxRectangle width="150" height="30" as="alternateBounds" />
          </mxGeometry>
        </mxCell>
        <mxCell id="ykuaLZmYjPcyV5SVd6rN-27" value="" style="shape=tableRow;horizontal=0;startSize=0;swimlaneHead=0;swimlaneBody=0;fillColor=none;collapsible=0;dropTarget=0;points=[[0,0.5],[1,0.5]];portConstraint=eastwest;top=0;left=0;right=0;bottom=0;" parent="ykuaLZmYjPcyV5SVd6rN-1" vertex="1">
          <mxGeometry y="240" width="180" height="30" as="geometry" />
        </mxCell>
        <mxCell id="ykuaLZmYjPcyV5SVd6rN-28" value="" style="shape=partialRectangle;connectable=0;fillColor=none;top=0;left=0;bottom=0;right=0;editable=1;overflow=hidden;whiteSpace=wrap;html=1;" parent="ykuaLZmYjPcyV5SVd6rN-27" vertex="1">
          <mxGeometry width="30" height="30" as="geometry">
            <mxRectangle width="30" height="30" as="alternateBounds" />
          </mxGeometry>
        </mxCell>
        <mxCell id="ykuaLZmYjPcyV5SVd6rN-29" value="Medium" style="shape=partialRectangle;connectable=0;fillColor=none;top=0;left=0;bottom=0;right=0;align=left;spacingLeft=6;overflow=hidden;whiteSpace=wrap;html=1;" parent="ykuaLZmYjPcyV5SVd6rN-27" vertex="1">
          <mxGeometry x="30" width="150" height="30" as="geometry">
            <mxRectangle width="150" height="30" as="alternateBounds" />
          </mxGeometry>
        </mxCell>
        <mxCell id="ykuaLZmYjPcyV5SVd6rN-30" value="" style="shape=tableRow;horizontal=0;startSize=0;swimlaneHead=0;swimlaneBody=0;fillColor=none;collapsible=0;dropTarget=0;points=[[0,0.5],[1,0.5]];portConstraint=eastwest;top=0;left=0;right=0;bottom=0;" parent="ykuaLZmYjPcyV5SVd6rN-1" vertex="1">
          <mxGeometry y="270" width="180" height="30" as="geometry" />
        </mxCell>
        <mxCell id="ykuaLZmYjPcyV5SVd6rN-31" value="" style="shape=partialRectangle;connectable=0;fillColor=none;top=0;left=0;bottom=0;right=0;editable=1;overflow=hidden;whiteSpace=wrap;html=1;" parent="ykuaLZmYjPcyV5SVd6rN-30" vertex="1">
          <mxGeometry width="30" height="30" as="geometry">
            <mxRectangle width="30" height="30" as="alternateBounds" />
          </mxGeometry>
        </mxCell>
        <mxCell id="ykuaLZmYjPcyV5SVd6rN-32" value="Fees" style="shape=partialRectangle;connectable=0;fillColor=none;top=0;left=0;bottom=0;right=0;align=left;spacingLeft=6;overflow=hidden;whiteSpace=wrap;html=1;" parent="ykuaLZmYjPcyV5SVd6rN-30" vertex="1">
          <mxGeometry x="30" width="150" height="30" as="geometry">
            <mxRectangle width="150" height="30" as="alternateBounds" />
          </mxGeometry>
        </mxCell>
        <mxCell id="ykuaLZmYjPcyV5SVd6rN-87" value="" style="shape=tableRow;horizontal=0;startSize=0;swimlaneHead=0;swimlaneBody=0;fillColor=none;collapsible=0;dropTarget=0;points=[[0,0.5],[1,0.5]];portConstraint=eastwest;top=0;left=0;right=0;bottom=0;" parent="ykuaLZmYjPcyV5SVd6rN-1" vertex="1">
          <mxGeometry y="300" width="180" height="30" as="geometry" />
        </mxCell>
        <mxCell id="ykuaLZmYjPcyV5SVd6rN-88" value="" style="shape=partialRectangle;connectable=0;fillColor=none;top=0;left=0;bottom=0;right=0;editable=1;overflow=hidden;whiteSpace=wrap;html=1;" parent="ykuaLZmYjPcyV5SVd6rN-87" vertex="1">
          <mxGeometry width="30" height="30" as="geometry">
            <mxRectangle width="30" height="30" as="alternateBounds" />
          </mxGeometry>
        </mxCell>
        <mxCell id="ykuaLZmYjPcyV5SVd6rN-89" value="Subjects" style="shape=partialRectangle;connectable=0;fillColor=none;top=0;left=0;bottom=0;right=0;align=left;spacingLeft=6;overflow=hidden;whiteSpace=wrap;html=1;" parent="ykuaLZmYjPcyV5SVd6rN-87" vertex="1">
          <mxGeometry x="30" width="150" height="30" as="geometry">
            <mxRectangle width="150" height="30" as="alternateBounds" />
          </mxGeometry>
        </mxCell>
        <mxCell id="ykuaLZmYjPcyV5SVd6rN-33" value="Teacher" style="shape=table;startSize=30;container=1;collapsible=1;childLayout=tableLayout;fixedRows=1;rowLines=0;fontStyle=1;align=center;resizeLast=1;html=1;" parent="1" vertex="1">
          <mxGeometry x="510" y="260" width="180" height="240" as="geometry" />
        </mxCell>
        <mxCell id="ykuaLZmYjPcyV5SVd6rN-34" value="" style="shape=tableRow;horizontal=0;startSize=0;swimlaneHead=0;swimlaneBody=0;fillColor=none;collapsible=0;dropTarget=0;points=[[0,0.5],[1,0.5]];portConstraint=eastwest;top=0;left=0;right=0;bottom=1;" parent="ykuaLZmYjPcyV5SVd6rN-33" vertex="1">
          <mxGeometry y="30" width="180" height="30" as="geometry" />
        </mxCell>
        <mxCell id="ykuaLZmYjPcyV5SVd6rN-35" value="PK" style="shape=partialRectangle;connectable=0;fillColor=none;top=0;left=0;bottom=0;right=0;fontStyle=1;overflow=hidden;whiteSpace=wrap;html=1;" parent="ykuaLZmYjPcyV5SVd6rN-34" vertex="1">
          <mxGeometry width="30" height="30" as="geometry">
            <mxRectangle width="30" height="30" as="alternateBounds" />
          </mxGeometry>
        </mxCell>
        <mxCell id="ykuaLZmYjPcyV5SVd6rN-36" value="Teacher ID" style="shape=partialRectangle;connectable=0;fillColor=none;top=0;left=0;bottom=0;right=0;align=left;spacingLeft=6;fontStyle=5;overflow=hidden;whiteSpace=wrap;html=1;" parent="ykuaLZmYjPcyV5SVd6rN-34" vertex="1">
          <mxGeometry x="30" width="150" height="30" as="geometry">
            <mxRectangle width="150" height="30" as="alternateBounds" />
          </mxGeometry>
        </mxCell>
        <mxCell id="ykuaLZmYjPcyV5SVd6rN-37" value="" style="shape=tableRow;horizontal=0;startSize=0;swimlaneHead=0;swimlaneBody=0;fillColor=none;collapsible=0;dropTarget=0;points=[[0,0.5],[1,0.5]];portConstraint=eastwest;top=0;left=0;right=0;bottom=0;" parent="ykuaLZmYjPcyV5SVd6rN-33" vertex="1">
          <mxGeometry y="60" width="180" height="30" as="geometry" />
        </mxCell>
        <mxCell id="ykuaLZmYjPcyV5SVd6rN-38" value="" style="shape=partialRectangle;connectable=0;fillColor=none;top=0;left=0;bottom=0;right=0;editable=1;overflow=hidden;whiteSpace=wrap;html=1;" parent="ykuaLZmYjPcyV5SVd6rN-37" vertex="1">
          <mxGeometry width="30" height="30" as="geometry">
            <mxRectangle width="30" height="30" as="alternateBounds" />
          </mxGeometry>
        </mxCell>
        <mxCell id="ykuaLZmYjPcyV5SVd6rN-39" value="Fname" style="shape=partialRectangle;connectable=0;fillColor=none;top=0;left=0;bottom=0;right=0;align=left;spacingLeft=6;overflow=hidden;whiteSpace=wrap;html=1;" parent="ykuaLZmYjPcyV5SVd6rN-37" vertex="1">
          <mxGeometry x="30" width="150" height="30" as="geometry">
            <mxRectangle width="150" height="30" as="alternateBounds" />
          </mxGeometry>
        </mxCell>
        <mxCell id="ykuaLZmYjPcyV5SVd6rN-40" value="" style="shape=tableRow;horizontal=0;startSize=0;swimlaneHead=0;swimlaneBody=0;fillColor=none;collapsible=0;dropTarget=0;points=[[0,0.5],[1,0.5]];portConstraint=eastwest;top=0;left=0;right=0;bottom=0;" parent="ykuaLZmYjPcyV5SVd6rN-33" vertex="1">
          <mxGeometry y="90" width="180" height="30" as="geometry" />
        </mxCell>
        <mxCell id="ykuaLZmYjPcyV5SVd6rN-41" value="" style="shape=partialRectangle;connectable=0;fillColor=none;top=0;left=0;bottom=0;right=0;editable=1;overflow=hidden;whiteSpace=wrap;html=1;" parent="ykuaLZmYjPcyV5SVd6rN-40" vertex="1">
          <mxGeometry width="30" height="30" as="geometry">
            <mxRectangle width="30" height="30" as="alternateBounds" />
          </mxGeometry>
        </mxCell>
        <mxCell id="ykuaLZmYjPcyV5SVd6rN-42" value="Lname" style="shape=partialRectangle;connectable=0;fillColor=none;top=0;left=0;bottom=0;right=0;align=left;spacingLeft=6;overflow=hidden;whiteSpace=wrap;html=1;" parent="ykuaLZmYjPcyV5SVd6rN-40" vertex="1">
          <mxGeometry x="30" width="150" height="30" as="geometry">
            <mxRectangle width="150" height="30" as="alternateBounds" />
          </mxGeometry>
        </mxCell>
        <mxCell id="ykuaLZmYjPcyV5SVd6rN-43" value="" style="shape=tableRow;horizontal=0;startSize=0;swimlaneHead=0;swimlaneBody=0;fillColor=none;collapsible=0;dropTarget=0;points=[[0,0.5],[1,0.5]];portConstraint=eastwest;top=0;left=0;right=0;bottom=0;" parent="ykuaLZmYjPcyV5SVd6rN-33" vertex="1">
          <mxGeometry y="120" width="180" height="30" as="geometry" />
        </mxCell>
        <mxCell id="ykuaLZmYjPcyV5SVd6rN-44" value="" style="shape=partialRectangle;connectable=0;fillColor=none;top=0;left=0;bottom=0;right=0;editable=1;overflow=hidden;whiteSpace=wrap;html=1;" parent="ykuaLZmYjPcyV5SVd6rN-43" vertex="1">
          <mxGeometry width="30" height="30" as="geometry">
            <mxRectangle width="30" height="30" as="alternateBounds" />
          </mxGeometry>
        </mxCell>
        <mxCell id="ykuaLZmYjPcyV5SVd6rN-45" value="Mo. no." style="shape=partialRectangle;connectable=0;fillColor=none;top=0;left=0;bottom=0;right=0;align=left;spacingLeft=6;overflow=hidden;whiteSpace=wrap;html=1;" parent="ykuaLZmYjPcyV5SVd6rN-43" vertex="1">
          <mxGeometry x="30" width="150" height="30" as="geometry">
            <mxRectangle width="150" height="30" as="alternateBounds" />
          </mxGeometry>
        </mxCell>
        <mxCell id="ykuaLZmYjPcyV5SVd6rN-46" value="" style="shape=tableRow;horizontal=0;startSize=0;swimlaneHead=0;swimlaneBody=0;fillColor=none;collapsible=0;dropTarget=0;points=[[0,0.5],[1,0.5]];portConstraint=eastwest;top=0;left=0;right=0;bottom=0;" parent="ykuaLZmYjPcyV5SVd6rN-33" vertex="1">
          <mxGeometry y="150" width="180" height="30" as="geometry" />
        </mxCell>
        <mxCell id="ykuaLZmYjPcyV5SVd6rN-47" value="" style="shape=partialRectangle;connectable=0;fillColor=none;top=0;left=0;bottom=0;right=0;editable=1;overflow=hidden;whiteSpace=wrap;html=1;" parent="ykuaLZmYjPcyV5SVd6rN-46" vertex="1">
          <mxGeometry width="30" height="30" as="geometry">
            <mxRectangle width="30" height="30" as="alternateBounds" />
          </mxGeometry>
        </mxCell>
        <mxCell id="ykuaLZmYjPcyV5SVd6rN-48" value="Address" style="shape=partialRectangle;connectable=0;fillColor=none;top=0;left=0;bottom=0;right=0;align=left;spacingLeft=6;overflow=hidden;whiteSpace=wrap;html=1;" parent="ykuaLZmYjPcyV5SVd6rN-46" vertex="1">
          <mxGeometry x="30" width="150" height="30" as="geometry">
            <mxRectangle width="150" height="30" as="alternateBounds" />
          </mxGeometry>
        </mxCell>
        <mxCell id="ykuaLZmYjPcyV5SVd6rN-55" value="" style="shape=tableRow;horizontal=0;startSize=0;swimlaneHead=0;swimlaneBody=0;fillColor=none;collapsible=0;dropTarget=0;points=[[0,0.5],[1,0.5]];portConstraint=eastwest;top=0;left=0;right=0;bottom=0;" parent="ykuaLZmYjPcyV5SVd6rN-33" vertex="1">
          <mxGeometry y="180" width="180" height="30" as="geometry" />
        </mxCell>
        <mxCell id="ykuaLZmYjPcyV5SVd6rN-56" value="" style="shape=partialRectangle;connectable=0;fillColor=none;top=0;left=0;bottom=0;right=0;editable=1;overflow=hidden;whiteSpace=wrap;html=1;" parent="ykuaLZmYjPcyV5SVd6rN-55" vertex="1">
          <mxGeometry width="30" height="30" as="geometry">
            <mxRectangle width="30" height="30" as="alternateBounds" />
          </mxGeometry>
        </mxCell>
        <mxCell id="ykuaLZmYjPcyV5SVd6rN-57" value="Subjects" style="shape=partialRectangle;connectable=0;fillColor=none;top=0;left=0;bottom=0;right=0;align=left;spacingLeft=6;overflow=hidden;whiteSpace=wrap;html=1;" parent="ykuaLZmYjPcyV5SVd6rN-55" vertex="1">
          <mxGeometry x="30" width="150" height="30" as="geometry">
            <mxRectangle width="150" height="30" as="alternateBounds" />
          </mxGeometry>
        </mxCell>
        <mxCell id="Vdn8UnTmY8im9ZyBU6Pb-22" value="" style="shape=tableRow;horizontal=0;startSize=0;swimlaneHead=0;swimlaneBody=0;fillColor=none;collapsible=0;dropTarget=0;points=[[0,0.5],[1,0.5]];portConstraint=eastwest;top=0;left=0;right=0;bottom=0;" parent="ykuaLZmYjPcyV5SVd6rN-33" vertex="1">
          <mxGeometry y="210" width="180" height="30" as="geometry" />
        </mxCell>
        <mxCell id="Vdn8UnTmY8im9ZyBU6Pb-23" value="" style="shape=partialRectangle;connectable=0;fillColor=none;top=0;left=0;bottom=0;right=0;editable=1;overflow=hidden;whiteSpace=wrap;html=1;" parent="Vdn8UnTmY8im9ZyBU6Pb-22" vertex="1">
          <mxGeometry width="30" height="30" as="geometry">
            <mxRectangle width="30" height="30" as="alternateBounds" />
          </mxGeometry>
        </mxCell>
        <mxCell id="Vdn8UnTmY8im9ZyBU6Pb-24" value="salary" style="shape=partialRectangle;connectable=0;fillColor=none;top=0;left=0;bottom=0;right=0;align=left;spacingLeft=6;overflow=hidden;whiteSpace=wrap;html=1;" parent="Vdn8UnTmY8im9ZyBU6Pb-22" vertex="1">
          <mxGeometry x="30" width="150" height="30" as="geometry">
            <mxRectangle width="150" height="30" as="alternateBounds" />
          </mxGeometry>
        </mxCell>
        <mxCell id="ykuaLZmYjPcyV5SVd6rN-74" value="Course Details" style="shape=table;startSize=30;container=1;collapsible=1;childLayout=tableLayout;fixedRows=1;rowLines=0;fontStyle=1;align=center;resizeLast=1;html=1;" parent="1" vertex="1">
          <mxGeometry x="260" y="-80" width="180" height="150" as="geometry" />
        </mxCell>
        <mxCell id="ykuaLZmYjPcyV5SVd6rN-75" value="" style="shape=tableRow;horizontal=0;startSize=0;swimlaneHead=0;swimlaneBody=0;fillColor=none;collapsible=0;dropTarget=0;points=[[0,0.5],[1,0.5]];portConstraint=eastwest;top=0;left=0;right=0;bottom=1;" parent="ykuaLZmYjPcyV5SVd6rN-74" vertex="1">
          <mxGeometry y="30" width="180" height="30" as="geometry" />
        </mxCell>
        <mxCell id="ykuaLZmYjPcyV5SVd6rN-76" value="PK" style="shape=partialRectangle;connectable=0;fillColor=none;top=0;left=0;bottom=0;right=0;fontStyle=1;overflow=hidden;whiteSpace=wrap;html=1;" parent="ykuaLZmYjPcyV5SVd6rN-75" vertex="1">
          <mxGeometry width="30" height="30" as="geometry">
            <mxRectangle width="30" height="30" as="alternateBounds" />
          </mxGeometry>
        </mxCell>
        <mxCell id="ykuaLZmYjPcyV5SVd6rN-77" value="Course ID" style="shape=partialRectangle;connectable=0;fillColor=none;top=0;left=0;bottom=0;right=0;align=left;spacingLeft=6;fontStyle=5;overflow=hidden;whiteSpace=wrap;html=1;" parent="ykuaLZmYjPcyV5SVd6rN-75" vertex="1">
          <mxGeometry x="30" width="150" height="30" as="geometry">
            <mxRectangle width="150" height="30" as="alternateBounds" />
          </mxGeometry>
        </mxCell>
        <mxCell id="ykuaLZmYjPcyV5SVd6rN-78" value="" style="shape=tableRow;horizontal=0;startSize=0;swimlaneHead=0;swimlaneBody=0;fillColor=none;collapsible=0;dropTarget=0;points=[[0,0.5],[1,0.5]];portConstraint=eastwest;top=0;left=0;right=0;bottom=0;" parent="ykuaLZmYjPcyV5SVd6rN-74" vertex="1">
          <mxGeometry y="60" width="180" height="30" as="geometry" />
        </mxCell>
        <mxCell id="ykuaLZmYjPcyV5SVd6rN-79" value="" style="shape=partialRectangle;connectable=0;fillColor=none;top=0;left=0;bottom=0;right=0;editable=1;overflow=hidden;whiteSpace=wrap;html=1;" parent="ykuaLZmYjPcyV5SVd6rN-78" vertex="1">
          <mxGeometry width="30" height="30" as="geometry">
            <mxRectangle width="30" height="30" as="alternateBounds" />
          </mxGeometry>
        </mxCell>
        <mxCell id="ykuaLZmYjPcyV5SVd6rN-80" value="Course Details" style="shape=partialRectangle;connectable=0;fillColor=none;top=0;left=0;bottom=0;right=0;align=left;spacingLeft=6;overflow=hidden;whiteSpace=wrap;html=1;" parent="ykuaLZmYjPcyV5SVd6rN-78" vertex="1">
          <mxGeometry x="30" width="150" height="30" as="geometry">
            <mxRectangle width="150" height="30" as="alternateBounds" />
          </mxGeometry>
        </mxCell>
        <mxCell id="ykuaLZmYjPcyV5SVd6rN-84" value="" style="shape=tableRow;horizontal=0;startSize=0;swimlaneHead=0;swimlaneBody=0;fillColor=none;collapsible=0;dropTarget=0;points=[[0,0.5],[1,0.5]];portConstraint=eastwest;top=0;left=0;right=0;bottom=0;" parent="ykuaLZmYjPcyV5SVd6rN-74" vertex="1">
          <mxGeometry y="90" width="180" height="30" as="geometry" />
        </mxCell>
        <mxCell id="ykuaLZmYjPcyV5SVd6rN-85" value="" style="shape=partialRectangle;connectable=0;fillColor=none;top=0;left=0;bottom=0;right=0;editable=1;overflow=hidden;whiteSpace=wrap;html=1;" parent="ykuaLZmYjPcyV5SVd6rN-84" vertex="1">
          <mxGeometry width="30" height="30" as="geometry">
            <mxRectangle width="30" height="30" as="alternateBounds" />
          </mxGeometry>
        </mxCell>
        <mxCell id="ykuaLZmYjPcyV5SVd6rN-86" value="Subjects" style="shape=partialRectangle;connectable=0;fillColor=none;top=0;left=0;bottom=0;right=0;align=left;spacingLeft=6;overflow=hidden;whiteSpace=wrap;html=1;" parent="ykuaLZmYjPcyV5SVd6rN-84" vertex="1">
          <mxGeometry x="30" width="150" height="30" as="geometry">
            <mxRectangle width="150" height="30" as="alternateBounds" />
          </mxGeometry>
        </mxCell>
        <mxCell id="ewVqOZVQOI_VRqULA07Q-1" value="" style="shape=tableRow;horizontal=0;startSize=0;swimlaneHead=0;swimlaneBody=0;fillColor=none;collapsible=0;dropTarget=0;points=[[0,0.5],[1,0.5]];portConstraint=eastwest;top=0;left=0;right=0;bottom=0;" parent="ykuaLZmYjPcyV5SVd6rN-74" vertex="1">
          <mxGeometry y="120" width="180" height="30" as="geometry" />
        </mxCell>
        <mxCell id="ewVqOZVQOI_VRqULA07Q-2" value="FK" style="shape=partialRectangle;connectable=0;fillColor=none;top=0;left=0;bottom=0;right=0;editable=1;overflow=hidden;whiteSpace=wrap;html=1;" parent="ewVqOZVQOI_VRqULA07Q-1" vertex="1">
          <mxGeometry width="30" height="30" as="geometry">
            <mxRectangle width="30" height="30" as="alternateBounds" />
          </mxGeometry>
        </mxCell>
        <mxCell id="ewVqOZVQOI_VRqULA07Q-3" value="Student_ID" style="shape=partialRectangle;connectable=0;fillColor=none;top=0;left=0;bottom=0;right=0;align=left;spacingLeft=6;overflow=hidden;whiteSpace=wrap;html=1;" parent="ewVqOZVQOI_VRqULA07Q-1" vertex="1">
          <mxGeometry x="30" width="150" height="30" as="geometry">
            <mxRectangle width="150" height="30" as="alternateBounds" />
          </mxGeometry>
        </mxCell>
        <mxCell id="ykuaLZmYjPcyV5SVd6rN-93" value="&amp;nbsp;Stream Details" style="shape=table;startSize=30;container=1;collapsible=1;childLayout=tableLayout;fixedRows=1;rowLines=0;fontStyle=1;align=center;resizeLast=1;html=1;" parent="1" vertex="1">
          <mxGeometry x="560" y="50" width="180" height="150" as="geometry" />
        </mxCell>
        <mxCell id="ykuaLZmYjPcyV5SVd6rN-94" value="" style="shape=tableRow;horizontal=0;startSize=0;swimlaneHead=0;swimlaneBody=0;fillColor=none;collapsible=0;dropTarget=0;points=[[0,0.5],[1,0.5]];portConstraint=eastwest;top=0;left=0;right=0;bottom=1;" parent="ykuaLZmYjPcyV5SVd6rN-93" vertex="1">
          <mxGeometry y="30" width="180" height="30" as="geometry" />
        </mxCell>
        <mxCell id="ykuaLZmYjPcyV5SVd6rN-95" value="PK" style="shape=partialRectangle;connectable=0;fillColor=none;top=0;left=0;bottom=0;right=0;fontStyle=1;overflow=hidden;whiteSpace=wrap;html=1;" parent="ykuaLZmYjPcyV5SVd6rN-94" vertex="1">
          <mxGeometry width="30" height="30" as="geometry">
            <mxRectangle width="30" height="30" as="alternateBounds" />
          </mxGeometry>
        </mxCell>
        <mxCell id="ykuaLZmYjPcyV5SVd6rN-96" value="Stream ID" style="shape=partialRectangle;connectable=0;fillColor=none;top=0;left=0;bottom=0;right=0;align=left;spacingLeft=6;fontStyle=5;overflow=hidden;whiteSpace=wrap;html=1;" parent="ykuaLZmYjPcyV5SVd6rN-94" vertex="1">
          <mxGeometry x="30" width="150" height="30" as="geometry">
            <mxRectangle width="150" height="30" as="alternateBounds" />
          </mxGeometry>
        </mxCell>
        <mxCell id="ykuaLZmYjPcyV5SVd6rN-97" value="" style="shape=tableRow;horizontal=0;startSize=0;swimlaneHead=0;swimlaneBody=0;fillColor=none;collapsible=0;dropTarget=0;points=[[0,0.5],[1,0.5]];portConstraint=eastwest;top=0;left=0;right=0;bottom=0;" parent="ykuaLZmYjPcyV5SVd6rN-93" vertex="1">
          <mxGeometry y="60" width="180" height="30" as="geometry" />
        </mxCell>
        <mxCell id="ykuaLZmYjPcyV5SVd6rN-98" value="" style="shape=partialRectangle;connectable=0;fillColor=none;top=0;left=0;bottom=0;right=0;editable=1;overflow=hidden;whiteSpace=wrap;html=1;" parent="ykuaLZmYjPcyV5SVd6rN-97" vertex="1">
          <mxGeometry width="30" height="30" as="geometry">
            <mxRectangle width="30" height="30" as="alternateBounds" />
          </mxGeometry>
        </mxCell>
        <mxCell id="ykuaLZmYjPcyV5SVd6rN-99" value="Stream Details" style="shape=partialRectangle;connectable=0;fillColor=none;top=0;left=0;bottom=0;right=0;align=left;spacingLeft=6;overflow=hidden;whiteSpace=wrap;html=1;" parent="ykuaLZmYjPcyV5SVd6rN-97" vertex="1">
          <mxGeometry x="30" width="150" height="30" as="geometry">
            <mxRectangle width="150" height="30" as="alternateBounds" />
          </mxGeometry>
        </mxCell>
        <mxCell id="ykuaLZmYjPcyV5SVd6rN-100" value="" style="shape=tableRow;horizontal=0;startSize=0;swimlaneHead=0;swimlaneBody=0;fillColor=none;collapsible=0;dropTarget=0;points=[[0,0.5],[1,0.5]];portConstraint=eastwest;top=0;left=0;right=0;bottom=0;" parent="ykuaLZmYjPcyV5SVd6rN-93" vertex="1">
          <mxGeometry y="90" width="180" height="30" as="geometry" />
        </mxCell>
        <mxCell id="ykuaLZmYjPcyV5SVd6rN-101" value="" style="shape=partialRectangle;connectable=0;fillColor=none;top=0;left=0;bottom=0;right=0;editable=1;overflow=hidden;whiteSpace=wrap;html=1;" parent="ykuaLZmYjPcyV5SVd6rN-100" vertex="1">
          <mxGeometry width="30" height="30" as="geometry">
            <mxRectangle width="30" height="30" as="alternateBounds" />
          </mxGeometry>
        </mxCell>
        <mxCell id="ykuaLZmYjPcyV5SVd6rN-102" value="Course Details" style="shape=partialRectangle;connectable=0;fillColor=none;top=0;left=0;bottom=0;right=0;align=left;spacingLeft=6;overflow=hidden;whiteSpace=wrap;html=1;" parent="ykuaLZmYjPcyV5SVd6rN-100" vertex="1">
          <mxGeometry x="30" width="150" height="30" as="geometry">
            <mxRectangle width="150" height="30" as="alternateBounds" />
          </mxGeometry>
        </mxCell>
        <mxCell id="OajRgMm-6UbB1C0NW9RX-2" value="" style="shape=tableRow;horizontal=0;startSize=0;swimlaneHead=0;swimlaneBody=0;fillColor=none;collapsible=0;dropTarget=0;points=[[0,0.5],[1,0.5]];portConstraint=eastwest;top=0;left=0;right=0;bottom=0;" parent="ykuaLZmYjPcyV5SVd6rN-93" vertex="1">
          <mxGeometry y="120" width="180" height="30" as="geometry" />
        </mxCell>
        <mxCell id="OajRgMm-6UbB1C0NW9RX-3" value="FK" style="shape=partialRectangle;connectable=0;fillColor=none;top=0;left=0;bottom=0;right=0;editable=1;overflow=hidden;whiteSpace=wrap;html=1;" parent="OajRgMm-6UbB1C0NW9RX-2" vertex="1">
          <mxGeometry width="30" height="30" as="geometry">
            <mxRectangle width="30" height="30" as="alternateBounds" />
          </mxGeometry>
        </mxCell>
        <mxCell id="OajRgMm-6UbB1C0NW9RX-4" value="Course ID" style="shape=partialRectangle;connectable=0;fillColor=none;top=0;left=0;bottom=0;right=0;align=left;spacingLeft=6;overflow=hidden;whiteSpace=wrap;html=1;" parent="OajRgMm-6UbB1C0NW9RX-2" vertex="1">
          <mxGeometry x="30" width="150" height="30" as="geometry">
            <mxRectangle width="150" height="30" as="alternateBounds" />
          </mxGeometry>
        </mxCell>
        <mxCell id="JwZw1YUppFsL-O1tho8N-1" value="" style="edgeStyle=entityRelationEdgeStyle;fontSize=12;html=1;endArrow=ERoneToMany;rounded=0;" parent="1" source="ewVqOZVQOI_VRqULA07Q-1" target="ykuaLZmYjPcyV5SVd6rN-2" edge="1">
          <mxGeometry width="100" height="100" relative="1" as="geometry">
            <mxPoint x="370" y="400" as="sourcePoint" />
            <mxPoint x="470" y="300" as="targetPoint" />
          </mxGeometry>
        </mxCell>
        <mxCell id="JwZw1YUppFsL-O1tho8N-2" value="" style="edgeStyle=entityRelationEdgeStyle;fontSize=12;html=1;endArrow=ERoneToMany;rounded=0;" parent="1" source="OajRgMm-6UbB1C0NW9RX-2" target="ykuaLZmYjPcyV5SVd6rN-75" edge="1">
          <mxGeometry width="100" height="100" relative="1" as="geometry">
            <mxPoint x="370" y="400" as="sourcePoint" />
            <mxPoint x="470" y="300" as="targetPoint" />
          </mxGeometry>
        </mxCell>
        <mxCell id="Vdn8UnTmY8im9ZyBU6Pb-2" value="money management" style="shape=table;startSize=30;container=1;collapsible=1;childLayout=tableLayout;fixedRows=1;rowLines=0;fontStyle=1;align=center;resizeLast=1;html=1;" parent="1" vertex="1">
          <mxGeometry x="260" y="270" width="180" height="180" as="geometry" />
        </mxCell>
        <mxCell id="Vdn8UnTmY8im9ZyBU6Pb-3" value="" style="shape=tableRow;horizontal=0;startSize=0;swimlaneHead=0;swimlaneBody=0;fillColor=none;collapsible=0;dropTarget=0;points=[[0,0.5],[1,0.5]];portConstraint=eastwest;top=0;left=0;right=0;bottom=1;" parent="Vdn8UnTmY8im9ZyBU6Pb-2" vertex="1">
          <mxGeometry y="30" width="180" height="30" as="geometry" />
        </mxCell>
        <mxCell id="Vdn8UnTmY8im9ZyBU6Pb-4" value="PK" style="shape=partialRectangle;connectable=0;fillColor=none;top=0;left=0;bottom=0;right=0;fontStyle=1;overflow=hidden;whiteSpace=wrap;html=1;" parent="Vdn8UnTmY8im9ZyBU6Pb-3" vertex="1">
          <mxGeometry width="30" height="30" as="geometry">
            <mxRectangle width="30" height="30" as="alternateBounds" />
          </mxGeometry>
        </mxCell>
        <mxCell id="Vdn8UnTmY8im9ZyBU6Pb-5" value="uses id" style="shape=partialRectangle;connectable=0;fillColor=none;top=0;left=0;bottom=0;right=0;align=left;spacingLeft=6;fontStyle=5;overflow=hidden;whiteSpace=wrap;html=1;" parent="Vdn8UnTmY8im9ZyBU6Pb-3" vertex="1">
          <mxGeometry x="30" width="150" height="30" as="geometry">
            <mxRectangle width="150" height="30" as="alternateBounds" />
          </mxGeometry>
        </mxCell>
        <mxCell id="Vdn8UnTmY8im9ZyBU6Pb-6" value="" style="shape=tableRow;horizontal=0;startSize=0;swimlaneHead=0;swimlaneBody=0;fillColor=none;collapsible=0;dropTarget=0;points=[[0,0.5],[1,0.5]];portConstraint=eastwest;top=0;left=0;right=0;bottom=0;" parent="Vdn8UnTmY8im9ZyBU6Pb-2" vertex="1">
          <mxGeometry y="60" width="180" height="30" as="geometry" />
        </mxCell>
        <mxCell id="Vdn8UnTmY8im9ZyBU6Pb-7" value="" style="shape=partialRectangle;connectable=0;fillColor=none;top=0;left=0;bottom=0;right=0;editable=1;overflow=hidden;whiteSpace=wrap;html=1;" parent="Vdn8UnTmY8im9ZyBU6Pb-6" vertex="1">
          <mxGeometry width="30" height="30" as="geometry">
            <mxRectangle width="30" height="30" as="alternateBounds" />
          </mxGeometry>
        </mxCell>
        <mxCell id="Vdn8UnTmY8im9ZyBU6Pb-8" value="fees" style="shape=partialRectangle;connectable=0;fillColor=none;top=0;left=0;bottom=0;right=0;align=left;spacingLeft=6;overflow=hidden;whiteSpace=wrap;html=1;" parent="Vdn8UnTmY8im9ZyBU6Pb-6" vertex="1">
          <mxGeometry x="30" width="150" height="30" as="geometry">
            <mxRectangle width="150" height="30" as="alternateBounds" />
          </mxGeometry>
        </mxCell>
        <mxCell id="Vdn8UnTmY8im9ZyBU6Pb-9" value="" style="shape=tableRow;horizontal=0;startSize=0;swimlaneHead=0;swimlaneBody=0;fillColor=none;collapsible=0;dropTarget=0;points=[[0,0.5],[1,0.5]];portConstraint=eastwest;top=0;left=0;right=0;bottom=0;" parent="Vdn8UnTmY8im9ZyBU6Pb-2" vertex="1">
          <mxGeometry y="90" width="180" height="30" as="geometry" />
        </mxCell>
        <mxCell id="Vdn8UnTmY8im9ZyBU6Pb-10" value="" style="shape=partialRectangle;connectable=0;fillColor=none;top=0;left=0;bottom=0;right=0;editable=1;overflow=hidden;whiteSpace=wrap;html=1;" parent="Vdn8UnTmY8im9ZyBU6Pb-9" vertex="1">
          <mxGeometry width="30" height="30" as="geometry">
            <mxRectangle width="30" height="30" as="alternateBounds" />
          </mxGeometry>
        </mxCell>
        <mxCell id="Vdn8UnTmY8im9ZyBU6Pb-11" value="salary" style="shape=partialRectangle;connectable=0;fillColor=none;top=0;left=0;bottom=0;right=0;align=left;spacingLeft=6;overflow=hidden;whiteSpace=wrap;html=1;" parent="Vdn8UnTmY8im9ZyBU6Pb-9" vertex="1">
          <mxGeometry x="30" width="150" height="30" as="geometry">
            <mxRectangle width="150" height="30" as="alternateBounds" />
          </mxGeometry>
        </mxCell>
        <mxCell id="Vdn8UnTmY8im9ZyBU6Pb-12" value="" style="shape=tableRow;horizontal=0;startSize=0;swimlaneHead=0;swimlaneBody=0;fillColor=none;collapsible=0;dropTarget=0;points=[[0,0.5],[1,0.5]];portConstraint=eastwest;top=0;left=0;right=0;bottom=0;" parent="Vdn8UnTmY8im9ZyBU6Pb-2" vertex="1">
          <mxGeometry y="120" width="180" height="30" as="geometry" />
        </mxCell>
        <mxCell id="Vdn8UnTmY8im9ZyBU6Pb-13" value="" style="shape=partialRectangle;connectable=0;fillColor=none;top=0;left=0;bottom=0;right=0;editable=1;overflow=hidden;whiteSpace=wrap;html=1;" parent="Vdn8UnTmY8im9ZyBU6Pb-12" vertex="1">
          <mxGeometry width="30" height="30" as="geometry">
            <mxRectangle width="30" height="30" as="alternateBounds" />
          </mxGeometry>
        </mxCell>
        <mxCell id="Vdn8UnTmY8im9ZyBU6Pb-14" value="scholarship" style="shape=partialRectangle;connectable=0;fillColor=none;top=0;left=0;bottom=0;right=0;align=left;spacingLeft=6;overflow=hidden;whiteSpace=wrap;html=1;" parent="Vdn8UnTmY8im9ZyBU6Pb-12" vertex="1">
          <mxGeometry x="30" width="150" height="30" as="geometry">
            <mxRectangle width="150" height="30" as="alternateBounds" />
          </mxGeometry>
        </mxCell>
        <mxCell id="Vdn8UnTmY8im9ZyBU6Pb-15" value="" style="shape=tableRow;horizontal=0;startSize=0;swimlaneHead=0;swimlaneBody=0;fillColor=none;collapsible=0;dropTarget=0;points=[[0,0.5],[1,0.5]];portConstraint=eastwest;top=0;left=0;right=0;bottom=0;" parent="Vdn8UnTmY8im9ZyBU6Pb-2" vertex="1">
          <mxGeometry y="150" width="180" height="30" as="geometry" />
        </mxCell>
        <mxCell id="Vdn8UnTmY8im9ZyBU6Pb-16" value="" style="shape=partialRectangle;connectable=0;fillColor=none;top=0;left=0;bottom=0;right=0;editable=1;overflow=hidden;whiteSpace=wrap;html=1;" parent="Vdn8UnTmY8im9ZyBU6Pb-15" vertex="1">
          <mxGeometry width="30" height="30" as="geometry">
            <mxRectangle width="30" height="30" as="alternateBounds" />
          </mxGeometry>
        </mxCell>
        <mxCell id="Vdn8UnTmY8im9ZyBU6Pb-17" value="events" style="shape=partialRectangle;connectable=0;fillColor=none;top=0;left=0;bottom=0;right=0;align=left;spacingLeft=6;overflow=hidden;whiteSpace=wrap;html=1;" parent="Vdn8UnTmY8im9ZyBU6Pb-15" vertex="1">
          <mxGeometry x="30" width="150" height="30" as="geometry">
            <mxRectangle width="150" height="30" as="alternateBounds" />
          </mxGeometry>
        </mxCell>
        <mxCell id="Vdn8UnTmY8im9ZyBU6Pb-18" value="" style="edgeStyle=entityRelationEdgeStyle;fontSize=12;html=1;endArrow=ERoneToMany;rounded=0;exitX=0;exitY=0.5;exitDx=0;exitDy=0;entryX=1;entryY=0.5;entryDx=0;entryDy=0;" parent="1" source="Vdn8UnTmY8im9ZyBU6Pb-6" target="ykuaLZmYjPcyV5SVd6rN-30" edge="1">
          <mxGeometry width="100" height="100" relative="1" as="geometry">
            <mxPoint x="370" y="290" as="sourcePoint" />
            <mxPoint x="180" y="310" as="targetPoint" />
          </mxGeometry>
        </mxCell>
        <mxCell id="Vdn8UnTmY8im9ZyBU6Pb-21" value="" style="edgeStyle=entityRelationEdgeStyle;fontSize=12;html=1;endArrow=ERmany;startArrow=ERmany;rounded=0;exitX=0;exitY=0.5;exitDx=0;exitDy=0;entryX=1;entryY=0.5;entryDx=0;entryDy=0;" parent="1" source="ykuaLZmYjPcyV5SVd6rN-55" target="ykuaLZmYjPcyV5SVd6rN-84" edge="1">
          <mxGeometry width="100" height="100" relative="1" as="geometry">
            <mxPoint x="370" y="430" as="sourcePoint" />
            <mxPoint x="470" y="330" as="targetPoint" />
          </mxGeometry>
        </mxCell>
        <mxCell id="Vdn8UnTmY8im9ZyBU6Pb-25" value="" style="edgeStyle=entityRelationEdgeStyle;fontSize=12;html=1;endArrow=ERoneToMany;rounded=0;entryX=0;entryY=0.5;entryDx=0;entryDy=0;" parent="1" source="Vdn8UnTmY8im9ZyBU6Pb-9" target="Vdn8UnTmY8im9ZyBU6Pb-22" edge="1">
          <mxGeometry width="100" height="100" relative="1" as="geometry">
            <mxPoint x="370" y="290" as="sourcePoint" />
            <mxPoint x="470" y="190" as="targetPoint" />
          </mxGeometry>
        </mxCell>
        <mxCell id="0Cf-HZxew9ZhaDq1UoW2-2" style="edgeStyle=orthogonalEdgeStyle;rounded=0;orthogonalLoop=1;jettySize=auto;html=1;exitX=0;exitY=0.5;exitDx=0;exitDy=0;" parent="1" source="ykuaLZmYjPcyV5SVd6rN-100" edge="1">
          <mxGeometry relative="1" as="geometry">
            <mxPoint x="550" y="150" as="targetPoint" />
          </mxGeometry>
        </mxCell>
        <mxCell id="0Cf-HZxew9ZhaDq1UoW2-3" value="" style="edgeStyle=entityRelationEdgeStyle;fontSize=12;html=1;endArrow=ERmany;startArrow=ERmany;rounded=0;exitX=1;exitY=0.5;exitDx=0;exitDy=0;entryX=0;entryY=0.5;entryDx=0;entryDy=0;" parent="1" source="ykuaLZmYjPcyV5SVd6rN-78" target="ykuaLZmYjPcyV5SVd6rN-100" edge="1">
          <mxGeometry width="100" height="100" relative="1" as="geometry">
            <mxPoint x="370" y="210" as="sourcePoint" />
            <mxPoint x="470" y="110" as="targetPoint" />
            <Array as="points">
              <mxPoint x="480" y="110" />
            </Array>
          </mxGeometry>
        </mxCell>
        <mxCell id="Dupf1I2E6qpUr25GmKl--1" value="&lt;span style=&quot;font-weight: 700; text-wrap-mode: nowrap;&quot;&gt;Student Details&lt;/span&gt;" style="whiteSpace=wrap;html=1;align=center;" vertex="1" parent="1">
          <mxGeometry x="140" y="-890" width="100" height="40" as="geometry" />
        </mxCell>
        <mxCell id="Dupf1I2E6qpUr25GmKl--2" value="&lt;span style=&quot;text-align: left;&quot;&gt;Fname&lt;/span&gt;" style="ellipse;whiteSpace=wrap;html=1;align=center;" vertex="1" parent="1">
          <mxGeometry x="-35" y="-910" width="100" height="40" as="geometry" />
        </mxCell>
        <mxCell id="Dupf1I2E6qpUr25GmKl--3" value="&lt;span style=&quot;font-weight: 700; text-align: left;&quot;&gt;Student ID&lt;/span&gt;" style="ellipse;whiteSpace=wrap;html=1;align=center;fontStyle=4;" vertex="1" parent="1">
          <mxGeometry x="-35" y="-960" width="100" height="40" as="geometry" />
        </mxCell>
        <mxCell id="Dupf1I2E6qpUr25GmKl--4" value="&lt;span style=&quot;text-align: left;&quot;&gt;Lname&lt;/span&gt;" style="ellipse;whiteSpace=wrap;html=1;align=center;" vertex="1" parent="1">
          <mxGeometry x="-35" y="-860" width="100" height="40" as="geometry" />
        </mxCell>
        <mxCell id="Dupf1I2E6qpUr25GmKl--5" value="&lt;span style=&quot;text-align: left;&quot;&gt;Rollno.&lt;/span&gt;" style="ellipse;whiteSpace=wrap;html=1;align=center;" vertex="1" parent="1">
          <mxGeometry x="-35" y="-810" width="100" height="40" as="geometry" />
        </mxCell>
        <mxCell id="Dupf1I2E6qpUr25GmKl--6" value="mo.no" style="ellipse;whiteSpace=wrap;html=1;align=center;" vertex="1" parent="1">
          <mxGeometry x="-35" y="-760" width="100" height="40" as="geometry" />
        </mxCell>
        <mxCell id="Dupf1I2E6qpUr25GmKl--7" value="&lt;span style=&quot;text-align: left;&quot;&gt;Address&lt;/span&gt;" style="ellipse;whiteSpace=wrap;html=1;align=center;" vertex="1" parent="1">
          <mxGeometry x="-35" y="-710" width="100" height="40" as="geometry" />
        </mxCell>
        <mxCell id="Dupf1I2E6qpUr25GmKl--8" value="division" style="ellipse;whiteSpace=wrap;html=1;align=center;" vertex="1" parent="1">
          <mxGeometry x="-35" y="-660" width="100" height="40" as="geometry" />
        </mxCell>
        <mxCell id="Dupf1I2E6qpUr25GmKl--9" value="&lt;span style=&quot;text-align: left;&quot;&gt;Medium&lt;/span&gt;" style="ellipse;whiteSpace=wrap;html=1;align=center;" vertex="1" parent="1">
          <mxGeometry x="-35" y="-600" width="100" height="40" as="geometry" />
        </mxCell>
        <mxCell id="Dupf1I2E6qpUr25GmKl--10" value="&lt;span style=&quot;text-align: left;&quot;&gt;Fees&lt;/span&gt;" style="ellipse;whiteSpace=wrap;html=1;align=center;" vertex="1" parent="1">
          <mxGeometry x="-35" y="-550" width="100" height="40" as="geometry" />
        </mxCell>
        <mxCell id="Dupf1I2E6qpUr25GmKl--11" value="&lt;span style=&quot;text-align: left;&quot;&gt;Subjects&lt;/span&gt;" style="ellipse;whiteSpace=wrap;html=1;align=center;" vertex="1" parent="1">
          <mxGeometry x="-35" y="-500" width="100" height="40" as="geometry" />
        </mxCell>
        <mxCell id="Dupf1I2E6qpUr25GmKl--13" value="&lt;span style=&quot;font-weight: 700; text-wrap-mode: nowrap;&quot;&gt;Course Details&lt;/span&gt;" style="whiteSpace=wrap;html=1;align=center;" vertex="1" parent="1">
          <mxGeometry x="530" y="-910" width="100" height="40" as="geometry" />
        </mxCell>
        <mxCell id="Dupf1I2E6qpUr25GmKl--15" value="&lt;span style=&quot;text-align: left;&quot;&gt;Course Details&lt;/span&gt;" style="ellipse;whiteSpace=wrap;html=1;align=center;" vertex="1" parent="1">
          <mxGeometry x="470" y="-1000" width="100" height="40" as="geometry" />
        </mxCell>
        <mxCell id="Dupf1I2E6qpUr25GmKl--16" value="&lt;span style=&quot;text-align: left;&quot;&gt;Subjects&lt;/span&gt;" style="ellipse;whiteSpace=wrap;html=1;align=center;" vertex="1" parent="1">
          <mxGeometry x="375" y="-960" width="100" height="40" as="geometry" />
        </mxCell>
        <mxCell id="Dupf1I2E6qpUr25GmKl--17" value="&lt;span style=&quot;text-align: left;&quot;&gt;Student_ID&lt;/span&gt;" style="ellipse;whiteSpace=wrap;html=1;align=center;" vertex="1" parent="1">
          <mxGeometry x="700" y="-970" width="100" height="40" as="geometry" />
        </mxCell>
        <mxCell id="Dupf1I2E6qpUr25GmKl--18" value="&lt;span style=&quot;font-weight: 700; text-align: left;&quot;&gt;Course ID&lt;/span&gt;" style="ellipse;whiteSpace=wrap;html=1;align=center;fontStyle=4;" vertex="1" parent="1">
          <mxGeometry x="600" y="-1000" width="100" height="40" as="geometry" />
        </mxCell>
        <mxCell id="Dupf1I2E6qpUr25GmKl--19" value="&lt;span style=&quot;font-weight: 700; text-wrap-mode: nowrap;&quot;&gt;&amp;nbsp;Stream Details&lt;/span&gt;" style="whiteSpace=wrap;html=1;align=center;" vertex="1" parent="1">
          <mxGeometry x="870" y="-820" width="100" height="40" as="geometry" />
        </mxCell>
        <mxCell id="Dupf1I2E6qpUr25GmKl--21" value="&lt;span style=&quot;text-align: left;&quot;&gt;Stream Details&lt;/span&gt;" style="ellipse;whiteSpace=wrap;html=1;align=center;" vertex="1" parent="1">
          <mxGeometry x="1030" y="-880" width="100" height="40" as="geometry" />
        </mxCell>
        <mxCell id="Dupf1I2E6qpUr25GmKl--22" value="&lt;span style=&quot;font-weight: 700; text-align: left;&quot;&gt;Stream ID&lt;/span&gt;" style="ellipse;whiteSpace=wrap;html=1;align=center;fontStyle=4;" vertex="1" parent="1">
          <mxGeometry x="1030" y="-940" width="100" height="40" as="geometry" />
        </mxCell>
        <mxCell id="Dupf1I2E6qpUr25GmKl--23" value="&lt;span style=&quot;text-align: left;&quot;&gt;Course ID&lt;/span&gt;" style="ellipse;whiteSpace=wrap;html=1;align=center;" vertex="1" parent="1">
          <mxGeometry x="1030" y="-770" width="100" height="40" as="geometry" />
        </mxCell>
        <mxCell id="Dupf1I2E6qpUr25GmKl--24" value="&lt;span style=&quot;text-align: left;&quot;&gt;Course Details&lt;/span&gt;" style="ellipse;whiteSpace=wrap;html=1;align=center;" vertex="1" parent="1">
          <mxGeometry x="1030" y="-830" width="100" height="40" as="geometry" />
        </mxCell>
        <mxCell id="Dupf1I2E6qpUr25GmKl--25" value="&lt;span style=&quot;font-weight: 700; text-wrap-mode: nowrap;&quot;&gt;Teacher&lt;/span&gt;" style="whiteSpace=wrap;html=1;align=center;" vertex="1" parent="1">
          <mxGeometry x="880" y="-520" width="100" height="40" as="geometry" />
        </mxCell>
        <mxCell id="Dupf1I2E6qpUr25GmKl--27" value="&lt;span style=&quot;font-weight: 700; text-wrap-mode: nowrap;&quot;&gt;money management&lt;/span&gt;" style="whiteSpace=wrap;html=1;align=center;" vertex="1" parent="1">
          <mxGeometry x="400" y="-590" width="170" height="40" as="geometry" />
        </mxCell>
        <mxCell id="Dupf1I2E6qpUr25GmKl--28" value="&lt;span style=&quot;font-weight: 700; text-align: left;&quot;&gt;uses id&lt;/span&gt;" style="ellipse;whiteSpace=wrap;html=1;align=center;fontStyle=4;" vertex="1" parent="1">
          <mxGeometry x="240" y="-580" width="100" height="40" as="geometry" />
        </mxCell>
        <mxCell id="Dupf1I2E6qpUr25GmKl--29" value="&lt;span style=&quot;font-weight: 700; text-align: left;&quot;&gt;Teacher ID&lt;/span&gt;" style="ellipse;whiteSpace=wrap;html=1;align=center;fontStyle=4;" vertex="1" parent="1">
          <mxGeometry x="1030" y="-590" width="100" height="40" as="geometry" />
        </mxCell>
        <mxCell id="Dupf1I2E6qpUr25GmKl--30" value="&lt;span style=&quot;text-align: left;&quot;&gt;Fname&lt;/span&gt;" style="ellipse;whiteSpace=wrap;html=1;align=center;" vertex="1" parent="1">
          <mxGeometry x="1030" y="-530" width="100" height="40" as="geometry" />
        </mxCell>
        <mxCell id="Dupf1I2E6qpUr25GmKl--31" value="&lt;span style=&quot;text-align: left;&quot;&gt;Lname&lt;/span&gt;" style="ellipse;whiteSpace=wrap;html=1;align=center;" vertex="1" parent="1">
          <mxGeometry x="1030" y="-480" width="100" height="40" as="geometry" />
        </mxCell>
        <mxCell id="Dupf1I2E6qpUr25GmKl--32" value="&lt;span style=&quot;text-align: left;&quot;&gt;Mo. no.&lt;/span&gt;" style="ellipse;whiteSpace=wrap;html=1;align=center;" vertex="1" parent="1">
          <mxGeometry x="1030" y="-430" width="100" height="40" as="geometry" />
        </mxCell>
        <mxCell id="Dupf1I2E6qpUr25GmKl--33" value="&lt;span style=&quot;text-align: left;&quot;&gt;Address&lt;/span&gt;" style="ellipse;whiteSpace=wrap;html=1;align=center;" vertex="1" parent="1">
          <mxGeometry x="1030" y="-380" width="100" height="40" as="geometry" />
        </mxCell>
        <mxCell id="Dupf1I2E6qpUr25GmKl--34" value="&lt;span style=&quot;text-align: left;&quot;&gt;Subjects&lt;/span&gt;" style="ellipse;whiteSpace=wrap;html=1;align=center;" vertex="1" parent="1">
          <mxGeometry x="1030" y="-330" width="100" height="40" as="geometry" />
        </mxCell>
        <mxCell id="Dupf1I2E6qpUr25GmKl--35" value="&lt;span style=&quot;text-align: left;&quot;&gt;salary&lt;/span&gt;" style="ellipse;whiteSpace=wrap;html=1;align=center;" vertex="1" parent="1">
          <mxGeometry x="1030" y="-280" width="100" height="40" as="geometry" />
        </mxCell>
        <mxCell id="Dupf1I2E6qpUr25GmKl--40" value="&lt;span style=&quot;text-align: left;&quot;&gt;fees&lt;/span&gt;" style="ellipse;whiteSpace=wrap;html=1;align=center;" vertex="1" parent="1">
          <mxGeometry x="240" y="-530" width="100" height="40" as="geometry" />
        </mxCell>
        <mxCell id="Dupf1I2E6qpUr25GmKl--41" value="&lt;span style=&quot;text-align: left;&quot;&gt;salary&lt;/span&gt;" style="ellipse;whiteSpace=wrap;html=1;align=center;" vertex="1" parent="1">
          <mxGeometry x="240" y="-480" width="100" height="40" as="geometry" />
        </mxCell>
        <mxCell id="Dupf1I2E6qpUr25GmKl--42" value="&lt;span style=&quot;text-align: left;&quot;&gt;scholarship&lt;/span&gt;" style="ellipse;whiteSpace=wrap;html=1;align=center;" vertex="1" parent="1">
          <mxGeometry x="240" y="-430" width="100" height="40" as="geometry" />
        </mxCell>
        <mxCell id="Dupf1I2E6qpUr25GmKl--43" value="&lt;span style=&quot;text-align: left;&quot;&gt;events&lt;/span&gt;" style="ellipse;whiteSpace=wrap;html=1;align=center;" vertex="1" parent="1">
          <mxGeometry x="240" y="-370" width="100" height="40" as="geometry" />
        </mxCell>
        <mxCell id="Dupf1I2E6qpUr25GmKl--46" value="" style="endArrow=none;html=1;rounded=0;exitX=1;exitY=0.5;exitDx=0;exitDy=0;" edge="1" parent="1" source="Dupf1I2E6qpUr25GmKl--3">
          <mxGeometry relative="1" as="geometry">
            <mxPoint x="470" y="-690" as="sourcePoint" />
            <mxPoint x="140" y="-880" as="targetPoint" />
          </mxGeometry>
        </mxCell>
        <mxCell id="Dupf1I2E6qpUr25GmKl--47" value="" style="endArrow=none;html=1;rounded=0;exitX=1;exitY=0.5;exitDx=0;exitDy=0;entryX=0;entryY=0.25;entryDx=0;entryDy=0;" edge="1" parent="1" source="Dupf1I2E6qpUr25GmKl--2" target="Dupf1I2E6qpUr25GmKl--1">
          <mxGeometry relative="1" as="geometry">
            <mxPoint x="75" y="-930" as="sourcePoint" />
            <mxPoint x="150" y="-880" as="targetPoint" />
          </mxGeometry>
        </mxCell>
        <mxCell id="Dupf1I2E6qpUr25GmKl--48" value="" style="endArrow=none;html=1;rounded=0;exitX=1;exitY=0.5;exitDx=0;exitDy=0;" edge="1" parent="1" source="Dupf1I2E6qpUr25GmKl--4">
          <mxGeometry relative="1" as="geometry">
            <mxPoint x="75" y="-880" as="sourcePoint" />
            <mxPoint x="140" y="-870" as="targetPoint" />
          </mxGeometry>
        </mxCell>
        <mxCell id="Dupf1I2E6qpUr25GmKl--49" value="" style="endArrow=none;html=1;rounded=0;exitX=1;exitY=0.5;exitDx=0;exitDy=0;entryX=0;entryY=0.5;entryDx=0;entryDy=0;" edge="1" parent="1" source="Dupf1I2E6qpUr25GmKl--5" target="Dupf1I2E6qpUr25GmKl--1">
          <mxGeometry relative="1" as="geometry">
            <mxPoint x="75" y="-830" as="sourcePoint" />
            <mxPoint x="150" y="-860" as="targetPoint" />
          </mxGeometry>
        </mxCell>
        <mxCell id="Dupf1I2E6qpUr25GmKl--50" value="" style="endArrow=none;html=1;rounded=0;exitX=1;exitY=0.5;exitDx=0;exitDy=0;" edge="1" parent="1" source="Dupf1I2E6qpUr25GmKl--6">
          <mxGeometry relative="1" as="geometry">
            <mxPoint x="75" y="-780" as="sourcePoint" />
            <mxPoint x="140" y="-870" as="targetPoint" />
          </mxGeometry>
        </mxCell>
        <mxCell id="Dupf1I2E6qpUr25GmKl--52" value="" style="endArrow=none;html=1;rounded=0;exitX=1;exitY=0.5;exitDx=0;exitDy=0;" edge="1" parent="1" source="Dupf1I2E6qpUr25GmKl--7">
          <mxGeometry relative="1" as="geometry">
            <mxPoint x="75" y="-730" as="sourcePoint" />
            <mxPoint x="140" y="-870" as="targetPoint" />
          </mxGeometry>
        </mxCell>
        <mxCell id="Dupf1I2E6qpUr25GmKl--53" value="" style="endArrow=none;html=1;rounded=0;exitX=1;exitY=0.5;exitDx=0;exitDy=0;" edge="1" parent="1" source="Dupf1I2E6qpUr25GmKl--8">
          <mxGeometry relative="1" as="geometry">
            <mxPoint x="75" y="-680" as="sourcePoint" />
            <mxPoint x="140" y="-870" as="targetPoint" />
          </mxGeometry>
        </mxCell>
        <mxCell id="Dupf1I2E6qpUr25GmKl--54" value="" style="endArrow=none;html=1;rounded=0;exitX=1;exitY=0.5;exitDx=0;exitDy=0;" edge="1" parent="1" source="Dupf1I2E6qpUr25GmKl--9">
          <mxGeometry relative="1" as="geometry">
            <mxPoint x="75" y="-630" as="sourcePoint" />
            <mxPoint x="140" y="-860" as="targetPoint" />
          </mxGeometry>
        </mxCell>
        <mxCell id="Dupf1I2E6qpUr25GmKl--55" value="" style="endArrow=none;html=1;rounded=0;exitX=1;exitY=0.5;exitDx=0;exitDy=0;entryX=0;entryY=0.5;entryDx=0;entryDy=0;" edge="1" parent="1" source="Dupf1I2E6qpUr25GmKl--10" target="Dupf1I2E6qpUr25GmKl--1">
          <mxGeometry relative="1" as="geometry">
            <mxPoint x="75" y="-570" as="sourcePoint" />
            <mxPoint x="150" y="-850" as="targetPoint" />
          </mxGeometry>
        </mxCell>
        <mxCell id="Dupf1I2E6qpUr25GmKl--56" value="" style="endArrow=none;html=1;rounded=0;exitX=1;exitY=0.5;exitDx=0;exitDy=0;" edge="1" parent="1" source="Dupf1I2E6qpUr25GmKl--11">
          <mxGeometry relative="1" as="geometry">
            <mxPoint x="75" y="-520" as="sourcePoint" />
            <mxPoint x="140" y="-860" as="targetPoint" />
          </mxGeometry>
        </mxCell>
        <mxCell id="Dupf1I2E6qpUr25GmKl--57" value="" style="endArrow=none;html=1;rounded=0;exitX=0;exitY=0.5;exitDx=0;exitDy=0;entryX=1;entryY=0.5;entryDx=0;entryDy=0;" edge="1" parent="1" source="Dupf1I2E6qpUr25GmKl--13" target="Dupf1I2E6qpUr25GmKl--1">
          <mxGeometry relative="1" as="geometry">
            <mxPoint x="75" y="-470" as="sourcePoint" />
            <mxPoint x="230" y="-860" as="targetPoint" />
          </mxGeometry>
        </mxCell>
        <mxCell id="Dupf1I2E6qpUr25GmKl--58" value="" style="endArrow=none;html=1;rounded=0;exitX=0.5;exitY=0;exitDx=0;exitDy=0;entryX=1;entryY=1;entryDx=0;entryDy=0;" edge="1" parent="1" source="Dupf1I2E6qpUr25GmKl--13" target="Dupf1I2E6qpUr25GmKl--16">
          <mxGeometry relative="1" as="geometry">
            <mxPoint x="540" y="-880" as="sourcePoint" />
            <mxPoint x="250" y="-860" as="targetPoint" />
          </mxGeometry>
        </mxCell>
        <mxCell id="Dupf1I2E6qpUr25GmKl--59" value="" style="endArrow=none;html=1;rounded=0;exitX=0.5;exitY=0;exitDx=0;exitDy=0;entryX=0.5;entryY=1;entryDx=0;entryDy=0;" edge="1" parent="1" source="Dupf1I2E6qpUr25GmKl--13" target="Dupf1I2E6qpUr25GmKl--15">
          <mxGeometry relative="1" as="geometry">
            <mxPoint x="540" y="-880" as="sourcePoint" />
            <mxPoint x="470" y="-916" as="targetPoint" />
          </mxGeometry>
        </mxCell>
        <mxCell id="Dupf1I2E6qpUr25GmKl--60" value="" style="endArrow=none;html=1;rounded=0;entryX=0.364;entryY=1.021;entryDx=0;entryDy=0;entryPerimeter=0;" edge="1" parent="1" target="Dupf1I2E6qpUr25GmKl--18">
          <mxGeometry relative="1" as="geometry">
            <mxPoint x="580" y="-910" as="sourcePoint" />
            <mxPoint x="530" y="-950" as="targetPoint" />
          </mxGeometry>
        </mxCell>
        <mxCell id="Dupf1I2E6qpUr25GmKl--61" value="" style="endArrow=none;html=1;rounded=0;entryX=0;entryY=1;entryDx=0;entryDy=0;exitX=0.5;exitY=0;exitDx=0;exitDy=0;" edge="1" parent="1" source="Dupf1I2E6qpUr25GmKl--13" target="Dupf1I2E6qpUr25GmKl--17">
          <mxGeometry relative="1" as="geometry">
            <mxPoint x="590" y="-900" as="sourcePoint" />
            <mxPoint x="646" y="-949" as="targetPoint" />
          </mxGeometry>
        </mxCell>
        <mxCell id="Dupf1I2E6qpUr25GmKl--62" value="" style="endArrow=none;html=1;rounded=0;entryX=0;entryY=0.5;entryDx=0;entryDy=0;exitX=1;exitY=0.5;exitDx=0;exitDy=0;" edge="1" parent="1" source="Dupf1I2E6qpUr25GmKl--13" target="Dupf1I2E6qpUr25GmKl--19">
          <mxGeometry relative="1" as="geometry">
            <mxPoint x="590" y="-900" as="sourcePoint" />
            <mxPoint x="725" y="-926" as="targetPoint" />
          </mxGeometry>
        </mxCell>
        <mxCell id="Dupf1I2E6qpUr25GmKl--63" value="" style="endArrow=none;html=1;rounded=0;entryX=0;entryY=1;entryDx=0;entryDy=0;exitX=1;exitY=0.5;exitDx=0;exitDy=0;" edge="1" parent="1" source="Dupf1I2E6qpUr25GmKl--19" target="Dupf1I2E6qpUr25GmKl--22">
          <mxGeometry relative="1" as="geometry">
            <mxPoint x="490" y="-830" as="sourcePoint" />
            <mxPoint x="650" y="-830" as="targetPoint" />
          </mxGeometry>
        </mxCell>
        <mxCell id="Dupf1I2E6qpUr25GmKl--64" value="" style="endArrow=none;html=1;rounded=0;entryX=0;entryY=1;entryDx=0;entryDy=0;exitX=1;exitY=0.5;exitDx=0;exitDy=0;" edge="1" parent="1" source="Dupf1I2E6qpUr25GmKl--19" target="Dupf1I2E6qpUr25GmKl--21">
          <mxGeometry relative="1" as="geometry">
            <mxPoint x="980" y="-790" as="sourcePoint" />
            <mxPoint x="1055" y="-896" as="targetPoint" />
          </mxGeometry>
        </mxCell>
        <mxCell id="Dupf1I2E6qpUr25GmKl--65" value="" style="endArrow=none;html=1;rounded=0;entryX=0;entryY=0.5;entryDx=0;entryDy=0;exitX=1;exitY=0.5;exitDx=0;exitDy=0;" edge="1" parent="1" source="Dupf1I2E6qpUr25GmKl--19" target="Dupf1I2E6qpUr25GmKl--24">
          <mxGeometry relative="1" as="geometry">
            <mxPoint x="980" y="-790" as="sourcePoint" />
            <mxPoint x="1055" y="-836" as="targetPoint" />
          </mxGeometry>
        </mxCell>
        <mxCell id="Dupf1I2E6qpUr25GmKl--66" value="" style="endArrow=none;html=1;rounded=0;entryX=0;entryY=0.5;entryDx=0;entryDy=0;" edge="1" parent="1" target="Dupf1I2E6qpUr25GmKl--23">
          <mxGeometry relative="1" as="geometry">
            <mxPoint x="970" y="-800" as="sourcePoint" />
            <mxPoint x="1040" y="-800" as="targetPoint" />
          </mxGeometry>
        </mxCell>
        <mxCell id="Dupf1I2E6qpUr25GmKl--67" value="" style="endArrow=none;html=1;rounded=0;entryX=0.5;entryY=0;entryDx=0;entryDy=0;exitX=0.5;exitY=1;exitDx=0;exitDy=0;" edge="1" parent="1" source="Dupf1I2E6qpUr25GmKl--19" target="Dupf1I2E6qpUr25GmKl--25">
          <mxGeometry relative="1" as="geometry">
            <mxPoint x="980" y="-790" as="sourcePoint" />
            <mxPoint x="1040" y="-740" as="targetPoint" />
          </mxGeometry>
        </mxCell>
        <mxCell id="Dupf1I2E6qpUr25GmKl--68" value="" style="endArrow=none;html=1;rounded=0;exitX=1;exitY=0.25;exitDx=0;exitDy=0;" edge="1" parent="1" source="Dupf1I2E6qpUr25GmKl--25" target="Dupf1I2E6qpUr25GmKl--29">
          <mxGeometry relative="1" as="geometry">
            <mxPoint x="930" y="-770" as="sourcePoint" />
            <mxPoint x="940" y="-510" as="targetPoint" />
          </mxGeometry>
        </mxCell>
        <mxCell id="Dupf1I2E6qpUr25GmKl--69" value="" style="endArrow=none;html=1;rounded=0;entryX=0;entryY=0.5;entryDx=0;entryDy=0;" edge="1" parent="1" target="Dupf1I2E6qpUr25GmKl--30">
          <mxGeometry relative="1" as="geometry">
            <mxPoint x="980" y="-510" as="sourcePoint" />
            <mxPoint x="1062" y="-543" as="targetPoint" />
          </mxGeometry>
        </mxCell>
        <mxCell id="Dupf1I2E6qpUr25GmKl--70" value="" style="endArrow=none;html=1;rounded=0;entryX=0;entryY=0;entryDx=0;entryDy=0;" edge="1" parent="1" target="Dupf1I2E6qpUr25GmKl--31">
          <mxGeometry relative="1" as="geometry">
            <mxPoint x="980" y="-510" as="sourcePoint" />
            <mxPoint x="1040" y="-500" as="targetPoint" />
          </mxGeometry>
        </mxCell>
        <mxCell id="Dupf1I2E6qpUr25GmKl--71" value="" style="endArrow=none;html=1;rounded=0;entryX=0;entryY=0.5;entryDx=0;entryDy=0;" edge="1" parent="1" target="Dupf1I2E6qpUr25GmKl--32">
          <mxGeometry relative="1" as="geometry">
            <mxPoint x="980" y="-510" as="sourcePoint" />
            <mxPoint x="1055" y="-464" as="targetPoint" />
          </mxGeometry>
        </mxCell>
        <mxCell id="Dupf1I2E6qpUr25GmKl--72" value="" style="endArrow=none;html=1;rounded=0;entryX=0.019;entryY=0.264;entryDx=0;entryDy=0;entryPerimeter=0;" edge="1" parent="1" target="Dupf1I2E6qpUr25GmKl--33">
          <mxGeometry relative="1" as="geometry">
            <mxPoint x="980" y="-510" as="sourcePoint" />
            <mxPoint x="1040" y="-400" as="targetPoint" />
          </mxGeometry>
        </mxCell>
        <mxCell id="Dupf1I2E6qpUr25GmKl--73" value="" style="endArrow=none;html=1;rounded=0;entryX=0;entryY=0.5;entryDx=0;entryDy=0;" edge="1" parent="1" target="Dupf1I2E6qpUr25GmKl--34">
          <mxGeometry relative="1" as="geometry">
            <mxPoint x="980" y="-500" as="sourcePoint" />
            <mxPoint x="1042" y="-359" as="targetPoint" />
          </mxGeometry>
        </mxCell>
        <mxCell id="Dupf1I2E6qpUr25GmKl--74" value="" style="endArrow=none;html=1;rounded=0;entryX=0;entryY=0.5;entryDx=0;entryDy=0;" edge="1" parent="1" target="Dupf1I2E6qpUr25GmKl--35">
          <mxGeometry relative="1" as="geometry">
            <mxPoint x="980" y="-500" as="sourcePoint" />
            <mxPoint x="1040" y="-300" as="targetPoint" />
          </mxGeometry>
        </mxCell>
        <mxCell id="Dupf1I2E6qpUr25GmKl--75" value="" style="endArrow=none;html=1;rounded=0;exitX=1;exitY=0.5;exitDx=0;exitDy=0;entryX=0;entryY=0.75;entryDx=0;entryDy=0;" edge="1" parent="1" source="Dupf1I2E6qpUr25GmKl--28" target="Dupf1I2E6qpUr25GmKl--27">
          <mxGeometry relative="1" as="geometry">
            <mxPoint x="490" y="-660" as="sourcePoint" />
            <mxPoint x="650" y="-660" as="targetPoint" />
          </mxGeometry>
        </mxCell>
        <mxCell id="Dupf1I2E6qpUr25GmKl--76" value="" style="endArrow=none;html=1;rounded=0;exitX=1;exitY=0.5;exitDx=0;exitDy=0;entryX=0;entryY=0.75;entryDx=0;entryDy=0;" edge="1" parent="1" source="Dupf1I2E6qpUr25GmKl--40" target="Dupf1I2E6qpUr25GmKl--27">
          <mxGeometry relative="1" as="geometry">
            <mxPoint x="350" y="-550" as="sourcePoint" />
            <mxPoint x="410" y="-550" as="targetPoint" />
          </mxGeometry>
        </mxCell>
        <mxCell id="Dupf1I2E6qpUr25GmKl--77" value="" style="endArrow=none;html=1;rounded=0;exitX=1.004;exitY=0.221;exitDx=0;exitDy=0;exitPerimeter=0;" edge="1" parent="1" source="Dupf1I2E6qpUr25GmKl--41">
          <mxGeometry relative="1" as="geometry">
            <mxPoint x="350" y="-500" as="sourcePoint" />
            <mxPoint x="400" y="-560" as="targetPoint" />
          </mxGeometry>
        </mxCell>
        <mxCell id="Dupf1I2E6qpUr25GmKl--78" value="" style="endArrow=none;html=1;rounded=0;exitX=1;exitY=0.5;exitDx=0;exitDy=0;" edge="1" parent="1" source="Dupf1I2E6qpUr25GmKl--42">
          <mxGeometry relative="1" as="geometry">
            <mxPoint x="350" y="-461" as="sourcePoint" />
            <mxPoint x="400" y="-560" as="targetPoint" />
          </mxGeometry>
        </mxCell>
        <mxCell id="Dupf1I2E6qpUr25GmKl--79" value="" style="endArrow=none;html=1;rounded=0;exitX=1;exitY=0.5;exitDx=0;exitDy=0;" edge="1" parent="1" source="Dupf1I2E6qpUr25GmKl--43">
          <mxGeometry relative="1" as="geometry">
            <mxPoint x="350" y="-400" as="sourcePoint" />
            <mxPoint x="400" y="-560" as="targetPoint" />
          </mxGeometry>
        </mxCell>
        <mxCell id="Dupf1I2E6qpUr25GmKl--80" value="" style="endArrow=none;html=1;rounded=0;exitX=1;exitY=0.5;exitDx=0;exitDy=0;entryX=0.5;entryY=0;entryDx=0;entryDy=0;" edge="1" parent="1" source="Dupf1I2E6qpUr25GmKl--1" target="Dupf1I2E6qpUr25GmKl--27">
          <mxGeometry relative="1" as="geometry">
            <mxPoint x="490" y="-660" as="sourcePoint" />
            <mxPoint x="650" y="-660" as="targetPoint" />
          </mxGeometry>
        </mxCell>
        <mxCell id="Dupf1I2E6qpUr25GmKl--81" value="" style="endArrow=none;html=1;rounded=0;exitX=0;exitY=0.25;exitDx=0;exitDy=0;entryX=1;entryY=0.5;entryDx=0;entryDy=0;" edge="1" parent="1" source="Dupf1I2E6qpUr25GmKl--25" target="Dupf1I2E6qpUr25GmKl--27">
          <mxGeometry relative="1" as="geometry">
            <mxPoint x="250" y="-860" as="sourcePoint" />
            <mxPoint x="495" y="-580" as="targetPoint" />
          </mxGeometry>
        </mxCell>
      </root>
    </mxGraphModel>
  </diagram>
</mxfile>
